<?xml version="1.0" standalone="no"?>
<!DOCTYPE svg PUBLIC "-//W3C//DTD SVG 20010904//EN"
 "http://www.w3.org/TR/2001/REC-SVG-20010904/DTD/svg10.dtd">
<svg version="1.0" xmlns="http://www.w3.org/2000/svg"
 width="274.000000pt" height="276.000000pt" viewBox="0 0 274.000000 276.000000"
 preserveAspectRatio="xMidYMid meet">

<g transform="translate(0.000000,276.000000) scale(0.100000,-0.100000)"
fill="#000000" stroke="none">
<path d="M1070 2425 c-7 -9 -10 -26 -6 -42 12 -48 27 -136 24 -138 -2 -2 -15
-1 -29 2 -21 4 -28 12 -32 40 -4 20 -4 55 -1 77 7 47 -10 70 -47 64 -34 -5
-45 -30 -31 -75 6 -21 13 -52 16 -69 5 -30 3 -32 -32 -38 -20 -3 -66 -6 -102
-6 -80 0 -120 -22 -151 -81 -32 -64 -23 -132 23 -175 37 -33 122 -64 179 -64
l32 0 -6 -444 c-6 -420 -6 -447 13 -517 11 -41 20 -84 20 -97 0 -12 -23 -82
-51 -155 -90 -231 -97 -280 -48 -321 35 -30 64 -39 105 -34 25 3 34 14 69 83
22 44 50 103 62 130 l23 50 -4 -143 -4 -144 27 -30 c20 -23 38 -31 74 -35 43
-5 49 -3 76 26 34 37 38 61 49 281 l7 145 101 2 102 3 4 -188 c3 -103 8 -194
12 -204 13 -29 57 -38 168 -36 92 3 110 6 127 23 30 30 41 128 41 377 0 209
-11 317 -38 389 -10 25 -8 27 19 33 68 13 101 90 63 145 -15 21 -23 23 -72 19
-47 -4 -60 -10 -82 -36 -16 -20 -30 -28 -36 -23 -26 26 -118 61 -189 71 -120
19 -149 28 -172 52 -31 34 -69 231 -88 458 -3 41 -13 116 -21 165 -18 118 -19
112 23 130 78 33 122 102 123 191 0 69 -15 82 -78 66 -46 -12 -95 -53 -132
-110 -13 -20 -17 -21 -34 -9 -16 11 -19 27 -19 98 0 46 -4 90 -10 97 -13 17
-52 15 -67 -3z m270 -170 c0 -28 -51 -90 -80 -98 -31 -8 -25 24 15 77 40 51
65 60 65 21z m-186 -95 c15 -16 48 -219 66 -409 10 -106 10 -115 -7 -125 -32
-17 -73 -70 -83 -106 -14 -51 -12 -80 9 -127 22 -47 78 -83 131 -83 18 0 47
-12 72 -30 22 -16 47 -30 54 -30 7 0 16 -17 20 -37 12 -70 46 -114 111 -147
45 -22 139 -21 186 3 l38 19 15 -23 c34 -52 46 -179 42 -431 -3 -255 -8 -279
-51 -272 -19 3 -20 11 -18 188 2 152 -1 189 -13 205 -9 11 -16 33 -16 48 0 38
-23 79 -60 111 -40 34 -127 37 -177 6 -34 -20 -73 -85 -73 -120 0 -18 -6 -20
-59 -20 -38 0 -65 -5 -74 -14 -10 -11 -15 -59 -20 -189 -4 -96 -10 -189 -13
-207 -8 -35 -28 -49 -53 -33 -14 9 -16 37 -17 199 -1 152 -4 196 -17 226 -16
35 -16 36 8 52 41 27 58 71 53 139 -4 53 -8 63 -40 93 -43 39 -105 58 -159 49
l-39 -7 0 90 c0 49 3 143 6 210 7 119 7 121 33 127 92 22 140 143 93 235 -20
40 -74 80 -108 80 -22 0 -23 4 -26 78 l-3 77 -40 -3 c-45 -3 -127 14 -167 34
-56 28 -41 129 22 154 14 5 99 8 192 7 132 -2 171 -6 182 -17z m-127 -422 c33
-31 32 -100 -2 -133 -32 -33 -45 -31 -45 4 0 15 -3 56 -6 90 -6 55 -5 61 11
61 10 0 29 -10 42 -22z m237 -295 c14 -61 14 -63 -5 -63 -11 0 -32 12 -46 26
-22 22 -25 32 -20 70 2 25 13 54 23 65 21 24 18 31 48 -98z m366 -244 c24 -11
52 -27 63 -36 17 -16 17 -17 -5 -30 -36 -20 -116 -16 -153 7 -27 17 -55 62
-55 87 0 10 108 -10 150 -28z m240 6 c0 -14 -48 -41 -57 -32 -9 10 11 36 30
40 12 2 23 5 25 6 1 0 2 -6 2 -14z m-776 -189 c63 -26 67 -119 6 -151 -25 -13
-29 -12 -53 13 -32 33 -71 118 -63 138 7 18 66 18 110 0z m523 -169 c12 -12
23 -31 25 -42 3 -19 -3 -20 -84 -23 -79 -2 -88 -1 -88 15 0 25 27 63 54 73 29
12 67 3 93 -23z m-567 -146 c-66 -166 -83 -207 -100 -242 -23 -43 -23 -43 -52
-28 -28 15 -21 54 42 221 28 73 53 139 56 147 3 11 14 6 39 -19 l34 -33 -19
-46z m618 -121 c2 -74 0 -154 -3 -178 -6 -40 -9 -43 -33 -40 -25 3 -27 7 -33
63 -9 84 -10 280 -2 289 4 4 21 6 38 4 l30 -3 3 -135z"/>
<path d="M987 2086 c-14 -35 23 -67 50 -45 8 7 13 22 11 33 -4 26 -52 35 -61
12z"/>
</g>
</svg>
